<svg xmlns="http://www.w3.org/2000/svg" viewBox="0 0 800 600">
  <defs>
    <linearGradient id="goldGrad3" x1="0%" y1="0%" x2="100%" y2="0%">
      <stop offset="0%" style="stop-color:#d4af37"/>
      <stop offset="100%" style="stop-color:#c9a962"/>
    </linearGradient>
  </defs>
  
  <!-- Background -->
  <rect width="800" height="600" fill="#0a0a0a"/>
  
  <!-- Header -->
  <text x="400" y="40" font-family="Arial, sans-serif" font-size="14" fill="#c9a962" text-anchor="middle" letter-spacing="3">AURORA OCEANO</text>
  <text x="400" y="70" font-family="Arial, sans-serif" font-size="22" fill="white" text-anchor="middle" font-weight="bold">TOP 10 CLIENTES 2025</text>
  <line x1="280" y1="85" x2="520" y2="85" stroke="#c9a962" stroke-width="1"/>
  
  <!-- Pie Chart (simplified segments) -->
  <g transform="translate(220, 320)">
    <!-- Consumintenso 13% - largest segment -->
    <path d="M0,0 L0,-140 A140,140 0 0,1 87,-109 Z" fill="#c9a962"/>
    <!-- Others segments -->
    <path d="M0,0 L87,-109 A140,140 0 0,1 136,-35 Z" fill="#a08040"/>
    <path d="M0,0 L136,-35 A140,140 0 0,1 130,52 Z" fill="#806530"/>
    <path d="M0,0 L130,52 A140,140 0 0,1 70,122 Z" fill="#604a20"/>
    <path d="M0,0 L70,122 A140,140 0 0,1 -30,137 Z" fill="#504020"/>
    <path d="M0,0 L-30,137 A140,140 0 0,1 -110,86 Z" fill="#403218"/>
    <path d="M0,0 L-110,86 A140,140 0 0,1 -138,-20 Z" fill="#352815"/>
    <path d="M0,0 L-138,-20 A140,140 0 0,1 -100,-98 Z" fill="#2a2010"/>
    <path d="M0,0 L-100,-98 A140,140 0 0,1 -45,-133 Z" fill="#201810"/>
    <path d="M0,0 L-45,-133 A140,140 0 0,1 0,-140 Z" fill="#181008"/>
    
    <!-- Center circle -->
    <circle cx="0" cy="0" r="70" fill="#0a0a0a"/>
    <text x="0" y="-5" font-family="Arial, sans-serif" font-size="14" fill="#888" text-anchor="middle">TOP 10</text>
    <text x="0" y="18" font-family="Arial, sans-serif" font-size="22" fill="#c9a962" text-anchor="middle" font-weight="bold">57%</text>
  </g>
  
  <!-- Client list -->
  <g transform="translate(420, 130)">
    <!-- Header -->
    <text x="0" y="0" font-family="Arial, sans-serif" font-size="11" fill="#666">CLIENTE</text>
    <text x="220" y="0" font-family="Arial, sans-serif" font-size="11" fill="#666" text-anchor="end">VALOR</text>
    <text x="280" y="0" font-family="Arial, sans-serif" font-size="11" fill="#666" text-anchor="end">%</text>
    <line x1="0" y1="10" x2="280" y2="10" stroke="#333" stroke-width="1"/>
    
    <!-- 1 -->
    <rect x="-5" y="20" width="290" height="32" fill="#1a1a1a" rx="4"/>
    <circle cx="12" cy="36" r="10" fill="#c9a962"/>
    <text x="12" y="40" font-family="Arial, sans-serif" font-size="10" fill="#0a0a0a" text-anchor="middle" font-weight="bold">1</text>
    <text x="32" y="40" font-family="Arial, sans-serif" font-size="12" fill="white">Consumintenso</text>
    <text x="220" y="40" font-family="Arial, sans-serif" font-size="12" fill="#c9a962" text-anchor="end" font-weight="bold">€580k</text>
    <text x="280" y="40" font-family="Arial, sans-serif" font-size="12" fill="#c9a962" text-anchor="end">13%</text>
    
    <!-- 2-10 -->
    <text x="32" y="72" font-family="Arial, sans-serif" font-size="11" fill="#aaa">2. Makro Portugal</text>
    <text x="220" y="72" font-family="Arial, sans-serif" font-size="11" fill="#888" text-anchor="end">€412k</text>
    <text x="280" y="72" font-family="Arial, sans-serif" font-size="11" fill="#888" text-anchor="end">9%</text>
    
    <text x="32" y="96" font-family="Arial, sans-serif" font-size="11" fill="#aaa">3. Recheio</text>
    <text x="220" y="96" font-family="Arial, sans-serif" font-size="11" fill="#888" text-anchor="end">€356k</text>
    <text x="280" y="96" font-family="Arial, sans-serif" font-size="11" fill="#888" text-anchor="end">8%</text>
    
    <text x="32" y="120" font-family="Arial, sans-serif" font-size="11" fill="#aaa">4. Seafood Express ES</text>
    <text x="220" y="120" font-family="Arial, sans-serif" font-size="11" fill="#888" text-anchor="end">€298k</text>
    <text x="280" y="120" font-family="Arial, sans-serif" font-size="11" fill="#888" text-anchor="end">7%</text>
    
    <text x="32" y="144" font-family="Arial, sans-serif" font-size="11" fill="#999">5. Auchan</text>
    <text x="220" y="144" font-family="Arial, sans-serif" font-size="11" fill="#777" text-anchor="end">€245k</text>
    <text x="280" y="144" font-family="Arial, sans-serif" font-size="11" fill="#777" text-anchor="end">6%</text>
    
    <text x="32" y="168" font-family="Arial, sans-serif" font-size="11" fill="#999">6. Mercadona</text>
    <text x="220" y="168" font-family="Arial, sans-serif" font-size="11" fill="#777" text-anchor="end">€198k</text>
    <text x="280" y="168" font-family="Arial, sans-serif" font-size="11" fill="#777" text-anchor="end">4%</text>
    
    <text x="32" y="192" font-family="Arial, sans-serif" font-size="11" fill="#999">7. El Corte Inglés</text>
    <text x="220" y="192" font-family="Arial, sans-serif" font-size="11" fill="#777" text-anchor="end">€167k</text>
    <text x="280" y="192" font-family="Arial, sans-serif" font-size="11" fill="#777" text-anchor="end">4%</text>
    
    <text x="32" y="216" font-family="Arial, sans-serif" font-size="11" fill="#888">8. Continente</text>
    <text x="220" y="216" font-family="Arial, sans-serif" font-size="11" fill="#666" text-anchor="end">€134k</text>
    <text x="280" y="216" font-family="Arial, sans-serif" font-size="11" fill="#666" text-anchor="end">3%</text>
    
    <text x="32" y="240" font-family="Arial, sans-serif" font-size="11" fill="#888">9. Pingo Doce</text>
    <text x="220" y="240" font-family="Arial, sans-serif" font-size="11" fill="#666" text-anchor="end">€112k</text>
    <text x="280" y="240" font-family="Arial, sans-serif" font-size="11" fill="#666" text-anchor="end">3%</text>
    
    <text x="32" y="264" font-family="Arial, sans-serif" font-size="11" fill="#888">10. HoReCa Norte</text>
    <text x="220" y="264" font-family="Arial, sans-serif" font-size="11" fill="#666" text-anchor="end">€98k</text>
    <text x="280" y="264" font-family="Arial, sans-serif" font-size="11" fill="#666" text-anchor="end">2%</text>
    
    <line x1="0" y1="280" x2="280" y2="280" stroke="#333" stroke-width="1"/>
    <text x="32" y="300" font-family="Arial, sans-serif" font-size="11" fill="#666">Restantes clientes</text>
    <text x="220" y="300" font-family="Arial, sans-serif" font-size="11" fill="#666" text-anchor="end">€1.81M</text>
    <text x="280" y="300" font-family="Arial, sans-serif" font-size="11" fill="#666" text-anchor="end">43%</text>
  </g>
  
  <!-- Insight -->
  <rect x="60" y="510" width="320" height="50" fill="#1a1a1a" rx="6"/>
  <text x="80" y="535" font-family="Arial, sans-serif" font-size="11" fill="#c9a962">⚠️ RISCO: Consumintenso = 13% da faturação</text>
  <text x="80" y="550" font-family="Arial, sans-serif" font-size="10" fill="#888">Dependência elevada de um único cliente</text>
  
  <!-- Footer -->
  <text x="400" y="580" font-family="Arial, sans-serif" font-size="10" fill="#444" text-anchor="middle">Concentração de Receita | Análise de Risco de Carteira</text>
</svg>