<svg xmlns="http://www.w3.org/2000/svg" viewBox="0 0 800 600">
  <defs>
    <linearGradient id="goldGrad5" x1="0%" y1="0%" x2="0%" y2="100%">
      <stop offset="0%" style="stop-color:#c9a962"/>
      <stop offset="100%" style="stop-color:#0a0a0a"/>
    </linearGradient>
  </defs>
  
  <!-- Background -->
  <rect width="800" height="600" fill="#0a0a0a"/>
  
  <!-- Header -->
  <text x="400" y="40" font-family="Arial, sans-serif" font-size="14" fill="#c9a962" text-anchor="middle" letter-spacing="3">AURORA OCEANO</text>
  <text x="400" y="70" font-family="Arial, sans-serif" font-size="22" fill="white" text-anchor="middle" font-weight="bold">PADRÃO DE SAZONALIDADE</text>
  <line x1="280" y1="85" x2="520" y2="85" stroke="#c9a962" stroke-width="1"/>
  
  <!-- Peak Season Highlight Background -->
  <rect x="445" y="120" width="295" height="350" fill="#1a1a1a" rx="0"/>
  <text x="593" y="145" font-family="Arial, sans-serif" font-size="12" fill="#c9a962" text-anchor="middle">ÉPOCA ALTA</text>
  
  <!-- Grid -->
  <line x1="80" y1="180" x2="740" y2="180" stroke="#222" stroke-width="1"/>
  <line x1="80" y1="260" x2="740" y2="260" stroke="#222" stroke-width="1"/>
  <line x1="80" y1="340" x2="740" y2="340" stroke="#222" stroke-width="1"/>
  <line x1="80" y1="420" x2="740" y2="420" stroke="#333" stroke-width="1"/>
  
  <!-- Y-axis labels -->
  <text x="70" y="185" font-family="Arial, sans-serif" font-size="10" fill="#666" text-anchor="end">15%</text>
  <text x="70" y="265" font-family="Arial, sans-serif" font-size="10" fill="#666" text-anchor="end">10%</text>
  <text x="70" y="345" font-family="Arial, sans-serif" font-size="10" fill="#666" text-anchor="end">5%</text>
  <text x="70" y="425" font-family="Arial, sans-serif" font-size="10" fill="#666" text-anchor="end">0%</text>
  
  <!-- Area under curve -->
  <path d="M100,380 L155,370 L210,375 L265,365 L320,360 L375,340 L430,280 L485,200 L540,220 L595,210 L650,240 L705,300 L705,420 L100,420 Z" 
        fill="url(#goldGrad5)" opacity="0.4"/>
  
  <!-- Line curve -->
  <path d="M100,380 L155,370 L210,375 L265,365 L320,360 L375,340 L430,280 L485,200 L540,220 L595,210 L650,240 L705,300" 
        fill="none" stroke="#c9a962" stroke-width="3" stroke-linecap="round" stroke-linejoin="round"/>
  
  <!-- Data points -->
  <circle cx="100" cy="380" r="5" fill="#0a0a0a" stroke="#c9a962" stroke-width="2"/>
  <circle cx="155" cy="370" r="5" fill="#0a0a0a" stroke="#c9a962" stroke-width="2"/>
  <circle cx="210" cy="375" r="5" fill="#0a0a0a" stroke="#c9a962" stroke-width="2"/>
  <circle cx="265" cy="365" r="5" fill="#0a0a0a" stroke="#c9a962" stroke-width="2"/>
  <circle cx="320" cy="360" r="5" fill="#0a0a0a" stroke="#c9a962" stroke-width="2"/>
  <circle cx="375" cy="340" r="5" fill="#0a0a0a" stroke="#c9a962" stroke-width="2"/>
  <circle cx="430" cy="280" r="6" fill="#c9a962" stroke="white" stroke-width="2"/>
  <circle cx="485" cy="200" r="8" fill="#c9a962" stroke="white" stroke-width="3"/>
  <circle cx="540" cy="220" r="6" fill="#c9a962" stroke="white" stroke-width="2"/>
  <circle cx="595" cy="210" r="7" fill="#c9a962" stroke="white" stroke-width="2"/>
  <circle cx="650" cy="240" r="6" fill="#c9a962" stroke="white" stroke-width="2"/>
  <circle cx="705" cy="300" r="5" fill="#0a0a0a" stroke="#c9a962" stroke-width="2"/>
  
  <!-- Month labels -->
  <text x="100" y="445" font-family="Arial, sans-serif" font-size="10" fill="#666" text-anchor="middle">JAN</text>
  <text x="155" y="445" font-family="Arial, sans-serif" font-size="10" fill="#666" text-anchor="middle">FEV</text>
  <text x="210" y="445" font-family="Arial, sans-serif" font-size="10" fill="#666" text-anchor="middle">MAR</text>
  <text x="265" y="445" font-family="Arial, sans-serif" font-size="10" fill="#666" text-anchor="middle">ABR</text>
  <text x="320" y="445" font-family="Arial, sans-serif" font-size="10" fill="#666" text-anchor="middle">MAI</text>
  <text x="375" y="445" font-family="Arial, sans-serif" font-size="10" fill="#666" text-anchor="middle">JUN</text>
  <text x="430" y="445" font-family="Arial, sans-serif" font-size="10" fill="#c9a962" text-anchor="middle" font-weight="bold">JUL</text>
  <text x="485" y="445" font-family="Arial, sans-serif" font-size="10" fill="#c9a962" text-anchor="middle" font-weight="bold">AGO</text>
  <text x="540" y="445" font-family="Arial, sans-serif" font-size="10" fill="#c9a962" text-anchor="middle" font-weight="bold">SET</text>
  <text x="595" y="445" font-family="Arial, sans-serif" font-size="10" fill="#c9a962" text-anchor="middle" font-weight="bold">OUT</text>
  <text x="650" y="445" font-family="Arial, sans-serif" font-size="10" fill="#c9a962" text-anchor="middle" font-weight="bold">NOV</text>
  <text x="705" y="445" font-family="Arial, sans-serif" font-size="10" fill="#666" text-anchor="middle">DEZ</text>
  
  <!-- Peak annotation -->
  <line x1="485" y1="200" x2="485" y2="160" stroke="#c9a962" stroke-width="1" stroke-dasharray="3,2"/>
  <text x="485" y="150" font-family="Arial, sans-serif" font-size="11" fill="#c9a962" text-anchor="middle" font-weight="bold">PICO: AGO</text>
  
  <!-- Stats boxes -->
  <rect x="80" y="490" width="200" height="70" fill="#1a1a1a" rx="6"/>
  <text x="100" y="520" font-family="Arial, sans-serif" font-size="11" fill="#888">Época Alta (Jul-Nov)</text>
  <text x="100" y="545" font-family="Arial, sans-serif" font-size="28" fill="#c9a962" font-weight="bold">61%</text>
  <text x="165" y="545" font-family="Arial, sans-serif" font-size="12" fill="#888">da faturação</text>
  
  <rect x="300" y="490" width="200" height="70" fill="#1a1a1a" rx="6"/>
  <text x="320" y="520" font-family="Arial, sans-serif" font-size="11" fill="#888">Época Baixa (Jan-Jun)</text>
  <text x="320" y="545" font-family="Arial, sans-serif" font-size="28" fill="#666" font-weight="bold">39%</text>
  <text x="385" y="545" font-family="Arial, sans-serif" font-size="12" fill="#666">da faturação</text>
  
  <rect x="520" y="490" width="220" height="70" fill="#1a1a1a" rx="6" stroke="#c9a962" stroke-width="1"/>
  <text x="540" y="520" font-family="Arial, sans-serif" font-size="11" fill="#c9a962">💡 Insight</text>
  <text x="540" y="540" font-family="Arial, sans-serif" font-size="10" fill="#aaa">Concentração sazonal exige</text>
  <text x="540" y="553" font-family="Arial, sans-serif" font-size="10" fill="#aaa">gestão de stock e cash flow</text>
  
  <!-- Footer -->
  <text x="400" y="585" font-family="Arial, sans-serif" font-size="10" fill="#444" text-anchor="middle">Distribuição Mensal de Faturação | Planeamento de Capacidade</text>
</svg>